HIERARCHY
ROOT Hips
{
	OFFSET 0.000000 0.000000 0.000000
	CHANNELS 6 Xposition Yposition Zposition Zrotation Yrotation Xrotation 
	JOINT LowerBack
	{
		OFFSET 0.000000 0.000000 0.000000
		CHANNELS 3 Zrotation Yrotation Xrotation
		JOINT Spine
		{
			OFFSET 0.028270 2.035590 -0.193380
			CHANNELS 3 Zrotation Yrotation Xrotation
			JOINT Spine1
			{
				OFFSET 0.056720 2.048850 -0.042750
				CHANNELS 3 Zrotation Yrotation Xrotation
				JOINT Neck
				{
					OFFSET 0.000000 0.000000 0.000000
					CHANNELS 3 Zrotation Yrotation Xrotation
					JOINT Neck1
					{
						OFFSET -0.054170 1.746240 0.172020
						CHANNELS 3 Zrotation Yrotation Xrotation
						JOINT Head
						{
							OFFSET 0.104070 1.761360 -0.123970
							CHANNELS 3 Zrotation Yrotation Xrotation
							End Site
							{
								OFFSET 0.000000 0.000000 0.000000
							}
						}
					}
				}
				JOINT LeftShoulder
				{
					OFFSET 0.000000 0.000000 0.000000
					CHANNELS 3 Zrotation Yrotation Xrotation
					JOINT LeftArm
					{
						OFFSET 3.362410 1.200890 -0.311210
						CHANNELS 3 Zrotation Yrotation Xrotation
						JOINT LeftForeArm
						{
							OFFSET 4.983000 -0.000000 -0.000000
							CHANNELS 3 Zrotation Yrotation Xrotation
							JOINT LeftHand
							{
								OFFSET 3.483560 -0.000000 -0.000000
								CHANNELS 3 Zrotation Yrotation Xrotation
								JOINT LeftFingerBase
								{
									OFFSET 0.000000 0.000000 0.000000
									CHANNELS 3 Zrotation Yrotation Xrotation
									JOINT LeftHandIndex1
									{
										OFFSET 0.715260 -0.000000 -0.000000
										CHANNELS 3 Zrotation Yrotation Xrotation
										End Site
										{
											OFFSET 0.000000 0.000000 0.000000
										}
									}
								}
								JOINT LThumb
								{
									OFFSET 0.000000 0.000000 0.000000
									CHANNELS 3 Zrotation Yrotation Xrotation
									End Site
									{
										OFFSET 0.000000 0.000000 0.000000
									}
								}
							}
						}
					}
				}
				JOINT RightShoulder
				{
					OFFSET 0.000000 0.000000 0.000000
					CHANNELS 3 Zrotation Yrotation Xrotation
					JOINT RightArm
					{
						OFFSET -3.136600 1.374050 -0.404650
						CHANNELS 3 Zrotation Yrotation Xrotation
						JOINT RightForeArm
						{
							OFFSET -5.241900 -0.000000 -0.000000
							CHANNELS 3 Zrotation Yrotation Xrotation
							JOINT RightHand
							{
								OFFSET -3.444170 -0.000000 -0.000000
								CHANNELS 3 Zrotation Yrotation Xrotation
								JOINT RightFingerBase
								{
									OFFSET 0.000000 0.000000 0.000000
									CHANNELS 3 Zrotation Yrotation Xrotation
									JOINT RightHandIndex1
									{
										OFFSET -0.622530 -0.000000 -0.000000
										CHANNELS 3 Zrotation Yrotation Xrotation
										End Site
										{
											OFFSET 0.000000 0.000000 0.000000
										}
									}
								}
								JOINT RThumb
								{
									OFFSET 0.000000 0.000000 0.000000
									CHANNELS 3 Zrotation Yrotation Xrotation
									End Site
									{
										OFFSET 0.000000 0.000000 0.000000
									}
								}
							}
						}
					}
				}
			}
		}
	}
}
}
MOTION
Frames: 12
Frame Time: 0.008333
4.449707 17.358999 1.513386 20.184936 -80.814190 4.295542 1.048615 -2.781182 3.978297 0.312458 -2.688296 -2.083936 -3.388971 -2.664418 0.322476 7.726558 -10.045524 -3.442978 -3.169488 -0.266199 0.936953 0.000000 0.000000 0.000000 5.071717 1.086805 -0.361806 -82.337949 1.853499 41.084989 -179.620439 -70.699956 -179.967303 -2.340916 4.158248 -0.083706 0.220071 0.411226 0.000000 0.000000 0.000000 0.000000 0.000000 0.000000 0.000000 8.599860 -9.425389 1.942347 54.335938 23.120011 52.018810 178.561478 70.885718 179.969057 -9.167699 6.514458 -0.591138 0.440307 -0.562146 -0.000000 0.000000 0.000000 0.000000 0.000000 0.000000 0.000000 
4.444513 17.361826 1.506387 18.431894 -79.302456 5.794020 0.851585 -2.639684 3.866389 0.338068 -2.545440 -2.073458 -2.989757 -2.538056 0.453214 7.405943 -9.704554 -3.319951 -3.031506 -0.258545 0.972613 0.000000 0.000000 0.000000 5.101431 1.190691 -0.330595 -82.050122 0.640506 42.327674 -179.573504 -70.582442 -179.967359 -2.360232 4.144375 -0.083651 0.213450 0.416763 0.000000 0.000000 0.000000 0.000000 0.000000 0.000000 0.000000 7.870538 -9.092678 2.172130 52.134521 24.581111 52.509588 178.553661 70.209792 179.968674 -9.096566 6.121411 -0.553169 0.443429 -0.551126 -0.000000 0.000000 0.000000 0.000000 0.000000 0.000000 0.000000 
4.438677 17.364898 1.498345 17.105762 -77.814707 6.835156 0.656948 -2.503902 3.728720 0.371751 -2.407111 -2.060915 -2.558196 -2.417382 0.602027 7.013782 -9.374801 -3.184282 -2.876104 -0.250015 1.012371 0.000000 0.000000 0.000000 5.077530 1.306397 -0.304272 -81.753513 -0.604652 43.470723 -179.524544 -70.437719 -179.967454 -2.368322 4.194267 -0.084707 0.206271 0.419161 0.000000 0.000000 0.000000 0.000000 0.000000 0.000000 0.000000 7.012170 -8.772720 2.405568 49.794021 26.227299 52.873987 178.554785 69.523568 179.969202 -8.858607 5.743525 -0.507266 0.439427 -0.539116 -0.000000 0.000000 0.000000 0.000000 0.000000 0.000000 0.000000 
4.432339 17.368148 1.489325 16.077520 -76.366264 7.548118 0.465799 -2.375220 3.567153 0.412913 -2.274482 -2.047348 -2.100027 -2.303417 0.762180 6.544265 -9.031973 -3.030744 -2.703561 -0.240704 1.057618 0.000000 0.000000 0.000000 5.005277 1.455159 -0.278361 -81.448735 -1.877486 44.516394 -179.472693 -70.274737 -179.967530 -2.377646 4.298146 -0.087074 0.198876 0.418544 0.000000 0.000000 0.000000 0.000000 0.000000 0.000000 0.000000 6.012508 -8.435934 2.628451 47.299780 28.010641 53.064279 178.573354 68.825743 179.970505 -8.502480 5.483779 -0.466125 0.428396 -0.529651 -0.000000 0.000000 0.000000 0.000000 0.000000 0.000000 0.000000 
4.425627 17.371601 1.479276 15.268059 -74.967619 8.013951 0.279288 -2.255507 3.385897 0.460640 -2.149186 -2.034065 -1.622270 -2.197533 0.924888 5.996081 -8.653711 -2.856054 -2.515706 -0.230796 1.109205 0.000000 0.000000 0.000000 4.891108 1.651423 -0.248883 -81.136538 -3.166258 45.463544 -179.417648 -70.097397 -179.967535 -2.399843 4.437609 -0.090855 0.191720 0.415404 0.000000 0.000000 0.000000 0.000000 0.000000 0.000000 0.000000 4.872389 -8.057020 2.827183 44.625787 29.874806 53.053752 178.618961 68.114716 179.972270 -8.099146 5.434686 -0.440234 0.411433 -0.526215 -0.000000 0.000000 0.000000 0.000000 0.000000 0.000000 0.000000 
4.418483 17.375276 1.468216 14.625391 -73.625401 8.290207 0.099104 -2.145875 3.188918 0.513907 -2.032213 -2.021926 -1.132490 -2.100363 1.084448 5.373458 -8.228958 -2.663315 -2.316539 -0.220538 1.166207 0.000000 0.000000 0.000000 4.741431 1.909540 -0.213390 -80.816958 -4.462605 46.313889 -179.358709 -69.905684 -179.967424 -2.445122 4.590089 -0.095749 0.185190 0.410480 0.000000 0.000000 0.000000 0.000000 0.000000 0.000000 0.000000 3.613960 -7.626317 2.991508 41.728317 31.774111 52.833301 178.700495 67.391505 179.974109 -7.710635 5.659487 -0.435280 0.389784 -0.531411 -0.000000 0.000000 0.000000 0.000000 0.000000 0.000000 0.000000 
4.410827 17.379206 1.456061 14.117512 -72.341192 8.415744 -0.072244 -2.045366 2.981307 0.571401 -1.922635 -2.012168 -0.639114 -2.010509 1.234165 4.680900 -7.751050 -2.457847 -2.108941 -0.210077 1.227127 0.000000 0.000000 0.000000 4.563384 2.239543 -0.169866 -80.488761 -5.763717 47.074473 -179.294738 -69.700715 -179.967178 -2.520494 4.731438 -0.101856 0.179470 0.404619 -0.000000 0.000000 0.000000 0.000000 0.000000 0.000000 0.000000 2.252955 -7.136777 3.112423 38.589102 33.639881 52.412244 178.824765 66.663937 179.975661 -7.361255 6.187860 -0.452058 0.363723 -0.546545 -0.000000 0.000000 0.000000 0.000000 0.000000 0.000000 0.000000 
4.402528 17.383328 1.442766 13.723949 -71.111569 8.419942 -0.230637 -1.950494 2.768496 0.631938 -1.817227 -2.006168 -0.150269 -1.924141 1.367936 3.918949 -7.224603 -2.248340 -1.893165 -0.199342 1.289588 0.000000 0.000000 0.000000 4.360372 2.644624 -0.117806 -80.147389 -7.071744 47.755959 -179.224602 -69.482259 -179.966821 -2.627718 4.841268 -0.108577 0.174493 0.398537 -0.000000 0.000000 0.000000 0.000000 0.000000 0.000000 0.000000 0.787325 -6.588827 3.184624 35.237012 35.387408 51.822768 178.993167 65.961062 179.976730 -7.021228 7.019287 -0.485677 0.332126 -0.571263 -0.000000 0.000000 0.000000 0.000000 0.000000 0.000000 0.000000 
4.393429 17.387688 1.428258 13.427042 -69.930141 8.328579 -0.374959 -1.857081 2.554236 0.693761 -1.712089 -2.003926 0.325780 -1.836742 1.486737 3.098329 -6.671561 -2.049492 -1.672267 -0.188346 1.349527 0.000000 0.000000 0.000000 4.137758 3.124112 -0.059753 -79.790493 -8.393655 48.369657 -179.147952 -69.249471 -179.966405 -2.763468 4.904835 -0.115408 0.170078 0.392793 -0.000000 0.000000 0.000000 0.000000 0.000000 0.000000 0.000000 -0.755220 -6.005217 3.212148 31.687099 36.973319 51.097535 179.199718 65.311114 179.977272 -6.611417 8.116411 -0.524652 0.292832 -0.603507 0.000000 0.000000 0.000000 0.000000 0.000000 0.000000 0.000000 
4.383090 17.392378 1.412642 13.210151 -68.788389 8.167593 -0.507925 -1.759098 2.340651 0.753850 -1.601381 -2.006095 0.779331 -1.741782 1.589979 2.242198 -6.108968 -1.872006 -1.452253 -0.177319 1.404050 0.000000 0.000000 0.000000 3.908117 3.659062 0.000072 -79.420133 -9.726241 48.922970 -179.066810 -69.003672 -179.966021 -2.916200 4.917199 -0.121848 0.165967 0.387646 -0.000000 0.000000 0.000000 0.000000 0.000000 0.000000 0.000000 -2.320685 -5.403120 3.205556 27.940613 38.351061 50.252000 179.432514 64.739564 179.977444 -6.003911 9.398643 -0.547304 0.242474 -0.639409 0.000000 0.000000 0.000000 0.000000 0.000000 0.000000 0.000000 
4.371506 17.396937 1.395666 13.078007 -67.669527 7.944072 -0.616611 -1.651504 2.130773 0.814380 -1.481213 -2.009198 1.208885 -1.635127 1.692801 1.315846 -5.618974 -1.745049 -1.218024 -0.164870 1.444956 0.000000 0.000000 0.000000 3.645622 4.265736 0.055649 -79.014656 -11.115626 49.439215 -178.979004 -68.742549 -179.965767 -3.081376 4.880274 -0.127299 0.161490 0.382615 -0.000000 0.000000 0.000000 0.000000 0.000000 0.000000 0.000000 -4.022769 -4.849239 3.177563 24.241551 39.506290 49.359649 179.662654 64.387495 179.978143 -4.994247 10.809359 -0.519065 0.176115 -0.673668 0.000000 0.000000 0.000000 0.000000 0.000000 0.000000 0.000000 
4.358207 17.401689 1.377738 13.002646 -66.566303 7.689100 -0.712740 -1.528708 1.923675 0.869674 -1.345864 -2.014338 1.600446 -1.510464 1.792286 0.376515 -5.200914 -1.668224 -0.986430 -0.152018 1.472465 0.000000 0.000000 0.000000 3.381804 4.897629 0.100665 -78.590204 -12.533084 49.912363 -178.891554 -68.469295 -179.965766 -3.236209 4.808655 -0.131260 0.156537 0.377397 -0.000000 0.000000 0.000000 0.000000 0.000000 0.000000 0.000000 -5.719837 -4.348996 3.148538 20.489134 40.430742 48.357574 179.872424 64.262054 179.979673 -3.429254 12.170727 -0.396748 0.091128 -0.699421 0.000000 0.000000 0.000000 0.000000 0.000000 0.000000 0.000000 
